<svg width="313" height="40" viewBox="0 0 313 40" fill="none" xmlns="http://www.w3.org/2000/svg">
<path d="M16.52 4.91999C20.808 4.91999 24.504 6.27999 27.608 8.99999L23.624 13.176C22.44 12.28 21.336 11.64 20.312 11.256C19.32 10.84 18.168 10.632 16.856 10.632C14.392 10.632 12.424 11.608 10.952 13.56C9.47999 15.48 8.74399 18.408 8.74399 22.344C8.74399 26.6 9.30398 29.624 10.424 31.416C11.544 33.176 13.288 34.056 15.656 34.056C17.32 34.056 18.824 33.688 20.168 32.952V25.416H15.848L15.08 19.848H27.8V36.312C26.072 37.432 24.168 38.296 22.088 38.904C20.008 39.512 17.928 39.816 15.848 39.816C10.792 39.816 6.98398 38.344 4.42398 35.4C1.86398 32.424 0.583984 28.072 0.583984 22.344C0.583984 18.696 1.27198 15.56 2.64798 12.936C4.05598 10.312 5.95998 8.32799 8.35998 6.98399C10.792 5.60799 13.512 4.91999 16.52 4.91999Z" fill="#141414"/>
<path d="M40.4975 13.512V39H32.9135V13.512H40.4975ZM36.6575 0.071991C37.9695 0.071991 39.0415 0.487991 39.8735 1.31999C40.7375 2.11999 41.1695 3.14399 41.1695 4.39199C41.1695 5.63999 40.7375 6.67999 39.8735 7.51199C39.0415 8.31199 37.9695 8.71199 36.6575 8.71199C35.3455 8.71199 34.2735 8.31199 33.4415 7.51199C32.6095 6.67999 32.1935 5.63999 32.1935 4.39199C32.1935 3.14399 32.6095 2.11999 33.4415 1.31999C34.2735 0.487991 35.3455 0.071991 36.6575 0.071991Z" fill="#141414"/>
<path d="M53.2284 39.816C51.0204 39.816 49.2924 39.192 48.0444 37.944C46.8284 36.664 46.2204 34.856 46.2204 32.52V3.38399L53.8044 2.56799V32.232C53.8044 33.288 54.2364 33.816 55.1004 33.816C55.5484 33.816 55.9644 33.736 56.3484 33.576L57.8364 38.952C56.4604 39.528 54.9244 39.816 53.2284 39.816Z" fill="#141414"/>
<path d="M75.1584 12.696C78.1984 12.696 80.5344 13.896 82.1664 16.296C83.7984 18.664 84.6144 21.992 84.6144 26.28C84.6144 28.904 84.1984 31.24 83.3664 33.288C82.5664 35.336 81.3984 36.936 79.8624 38.088C78.3584 39.24 76.5664 39.816 74.4864 39.816C73.1104 39.816 71.8464 39.528 70.6944 38.952C69.5744 38.376 68.6144 37.576 67.8144 36.552L67.4304 39H60.7104V3.38399L68.2944 2.56799V16.104C69.0624 15.048 70.0384 14.216 71.2224 13.608C72.4384 13 73.7504 12.696 75.1584 12.696ZM72.2784 34.296C75.2544 34.296 76.7424 31.624 76.7424 26.28C76.7424 23.24 76.3904 21.144 75.6864 19.992C74.9824 18.84 73.9584 18.264 72.6144 18.264C70.9184 18.264 69.4784 19.256 68.2944 21.24V31.848C68.7744 32.616 69.3504 33.224 70.0224 33.672C70.7264 34.088 71.4784 34.296 72.2784 34.296Z" fill="#141414"/>
<path d="M111.575 25.752C111.575 26.808 111.527 27.72 111.431 28.488H95.639C95.895 30.632 96.503 32.136 97.463 33C98.423 33.864 99.751 34.296 101.447 34.296C102.471 34.296 103.463 34.12 104.423 33.768C105.383 33.384 106.423 32.808 107.543 32.04L110.663 36.264C107.687 38.632 104.375 39.816 100.727 39.816C96.599 39.816 93.431 38.6 91.223 36.168C89.015 33.736 87.911 30.472 87.911 26.376C87.911 23.784 88.375 21.464 89.303 19.416C90.231 17.336 91.591 15.704 93.383 14.52C95.175 13.304 97.319 12.696 99.815 12.696C103.495 12.696 106.375 13.848 108.455 16.152C110.535 18.456 111.575 21.656 111.575 25.752ZM104.135 23.592C104.071 19.688 102.695 17.736 100.007 17.736C98.695 17.736 97.671 18.216 96.935 19.176C96.231 20.136 95.799 21.72 95.639 23.928H104.135V23.592Z" fill="#141414"/>
<path d="M129.659 12.792C130.587 12.792 131.435 12.904 132.203 13.128L131.003 20.472C130.043 20.248 129.275 20.136 128.699 20.136C127.195 20.136 126.043 20.664 125.243 21.72C124.475 22.744 123.867 24.296 123.419 26.376V39H115.835V13.512H122.459L123.083 18.456C123.659 16.696 124.523 15.32 125.675 14.328C126.859 13.304 128.187 12.792 129.659 12.792Z" fill="#141414"/>
<path d="M151.085 37.8C150.157 38.44 149.069 38.936 147.821 39.288C146.605 39.64 145.389 39.816 144.173 39.816C138.605 39.784 135.821 36.712 135.821 30.6V18.792H132.221V13.512H135.821V7.99199L143.405 7.12799V13.512H149.261L148.445 18.792H143.405V30.504C143.405 31.688 143.597 32.536 143.981 33.048C144.365 33.56 144.973 33.816 145.805 33.816C146.669 33.816 147.581 33.544 148.541 33L151.085 37.8Z" fill="#141414"/>
<path d="M163.813 12.696C167.717 12.696 170.773 13.896 172.981 16.296C175.189 18.664 176.293 21.992 176.293 26.28C176.293 29 175.781 31.384 174.757 33.432C173.765 35.448 172.325 37.016 170.437 38.136C168.581 39.256 166.373 39.816 163.813 39.816C159.941 39.816 156.885 38.632 154.645 36.264C152.437 33.864 151.333 30.52 151.333 26.232C151.333 23.512 151.829 21.144 152.821 19.128C153.845 17.08 155.285 15.496 157.141 14.376C159.029 13.256 161.253 12.696 163.813 12.696ZM163.813 18.264C162.277 18.264 161.125 18.92 160.357 20.232C159.589 21.512 159.205 23.512 159.205 26.232C159.205 29.016 159.573 31.048 160.309 32.328C161.077 33.608 162.245 34.248 163.813 34.248C165.349 34.248 166.501 33.608 167.269 32.328C168.037 31.016 168.421 29 168.421 26.28C168.421 23.496 168.037 21.464 167.269 20.184C166.533 18.904 165.381 18.264 163.813 18.264Z" fill="#141414"/>
<path d="M217.251 5.73599L207.987 39H198.195L188.595 5.73599H196.899L203.235 32.856L209.187 5.73599H217.251Z" fill="#141414"/>
<path d="M227.154 13.512V39H219.57V13.512H227.154ZM223.314 0.071991C224.626 0.071991 225.698 0.487991 226.53 1.31999C227.394 2.11999 227.826 3.14399 227.826 4.39199C227.826 5.63999 227.394 6.67999 226.53 7.51199C225.698 8.31199 224.626 8.71199 223.314 8.71199C222.002 8.71199 220.93 8.31199 220.098 7.51199C219.266 6.67999 218.85 5.63999 218.85 4.39199C218.85 3.14399 219.266 2.11999 220.098 1.31999C220.93 0.487991 222.002 0.071991 223.314 0.071991Z" fill="#141414"/>
<path d="M255.341 25.752C255.341 26.808 255.293 27.72 255.197 28.488H239.405C239.661 30.632 240.269 32.136 241.229 33C242.189 33.864 243.517 34.296 245.213 34.296C246.237 34.296 247.229 34.12 248.189 33.768C249.149 33.384 250.189 32.808 251.309 32.04L254.429 36.264C251.453 38.632 248.141 39.816 244.493 39.816C240.365 39.816 237.197 38.6 234.989 36.168C232.781 33.736 231.677 30.472 231.677 26.376C231.677 23.784 232.141 21.464 233.069 19.416C233.997 17.336 235.357 15.704 237.149 14.52C238.941 13.304 241.085 12.696 243.581 12.696C247.261 12.696 250.141 13.848 252.221 16.152C254.301 18.456 255.341 21.656 255.341 25.752ZM247.901 23.592C247.837 19.688 246.461 17.736 243.773 17.736C242.461 17.736 241.437 18.216 240.701 19.176C239.997 20.136 239.565 21.72 239.405 23.928H247.901V23.592Z" fill="#141414"/>
<path d="M267.185 13.512V39H259.601V13.512H267.185ZM263.345 0.071991C264.657 0.071991 265.729 0.487991 266.561 1.31999C267.425 2.11999 267.857 3.14399 267.857 4.39199C267.857 5.63999 267.425 6.67999 266.561 7.51199C265.729 8.31199 264.657 8.71199 263.345 8.71199C262.033 8.71199 260.961 8.31199 260.129 7.51199C259.297 6.67999 258.881 5.63999 258.881 4.39199C258.881 3.14399 259.297 2.11999 260.129 1.31999C260.961 0.487991 262.033 0.071991 263.345 0.071991Z" fill="#141414"/>
<path d="M286.972 12.792C287.9 12.792 288.748 12.904 289.516 13.128L288.316 20.472C287.356 20.248 286.588 20.136 286.012 20.136C284.508 20.136 283.356 20.664 282.556 21.72C281.788 22.744 281.18 24.296 280.732 26.376V39H273.148V13.512H279.772L280.396 18.456C280.972 16.696 281.836 15.32 282.988 14.328C284.172 13.304 285.5 12.792 286.972 12.792Z" fill="#141414"/>
<path d="M310.982 31.608C310.982 32.568 311.11 33.272 311.366 33.72C311.654 34.168 312.102 34.504 312.71 34.728L311.126 39.672C309.558 39.544 308.278 39.208 307.286 38.664C306.294 38.088 305.526 37.192 304.982 35.976C303.318 38.536 300.758 39.816 297.302 39.816C294.774 39.816 292.758 39.08 291.254 37.608C289.75 36.136 288.998 34.216 288.998 31.848C288.998 29.064 290.022 26.936 292.07 25.464C294.118 23.992 297.078 23.256 300.95 23.256H303.542V22.152C303.542 20.648 303.222 19.624 302.582 19.08C301.942 18.504 300.822 18.216 299.222 18.216C298.39 18.216 297.382 18.344 296.198 18.6C295.014 18.824 293.798 19.144 292.55 19.56L290.822 14.568C292.422 13.96 294.054 13.496 295.718 13.176C297.414 12.856 298.982 12.696 300.422 12.696C304.07 12.696 306.742 13.448 308.438 14.952C310.134 16.456 310.982 18.712 310.982 21.72V31.608ZM299.51 34.392C301.238 34.392 302.582 33.576 303.542 31.944V27.432H301.67C299.942 27.432 298.646 27.736 297.782 28.344C296.95 28.952 296.534 29.896 296.534 31.176C296.534 32.2 296.79 33 297.302 33.576C297.846 34.12 298.582 34.392 299.51 34.392Z" fill="#141414"/>
</svg>
